<svg width="30" height="24" viewBox="0 0 30 24" fill="none" xmlns="http://www.w3.org/2000/svg">
<path d="M28.2451 6.15009H6.52232L7.50851 15.0258C7.69983 16.7477 9.15529 18.0504 10.8878 18.0504H22.2803C23.7984 18.0504 25.1326 17.0441 25.5496 15.5844L28.2451 6.15009Z" fill="white"/>
<path d="M28.2451 6.15009L29.2067 6.42481L29.5709 5.15009H28.2451V6.15009ZM25.5496 15.5844L26.5111 15.8591L25.5496 15.5844ZM7.50851 15.0258L6.51463 15.1362L7.50851 15.0258ZM6.52232 7.15009H28.2451V5.15009H6.52232V7.15009ZM27.2836 5.87537L24.5881 15.3097L26.5111 15.8591L29.2067 6.42481L27.2836 5.87537ZM24.5881 15.3097C24.2937 16.34 23.3519 17.0504 22.2803 17.0504V19.0504C24.2449 19.0504 25.9714 17.7481 26.5111 15.8591L24.5881 15.3097ZM22.2803 17.0504H10.8878V19.0504H22.2803V17.0504ZM10.8878 17.0504C9.66484 17.0504 8.63745 16.1309 8.50239 14.9154L6.51463 15.1362C6.76222 17.3646 8.64574 19.0504 10.8878 19.0504V17.0504ZM8.50239 14.9154L7.5162 6.03966L5.52844 6.26053L6.51463 15.1362L8.50239 14.9154ZM7.5162 6.03966L7.13841 2.63957L5.15065 2.86043L5.52844 6.26053L7.5162 6.03966Z" fill="white"/>
<path d="M5.82419 3.69623C6.34708 3.87399 6.91508 3.59421 7.09284 3.07131C7.2706 2.54842 6.99082 1.98042 6.46792 1.80266L5.82419 3.69623ZM6.46792 1.80266L1.32187 0.0532152L0.678133 1.94678L5.82419 3.69623L6.46792 1.80266Z" fill="white"/>
<path d="M10.3954 23.9997C11.3343 23.9997 12.0954 23.2386 12.0954 22.2997C12.0954 21.3607 11.3343 20.5996 10.3954 20.5996C9.45645 20.5996 8.69531 21.3607 8.69531 22.2997C8.69531 23.2386 9.45645 23.9997 10.3954 23.9997Z" fill="white"/>
<path d="M23.9969 23.9997C24.9358 23.9997 25.697 23.2386 25.697 22.2997C25.697 21.3607 24.9358 20.5996 23.9969 20.5996C23.058 20.5996 22.2969 21.3607 22.2969 22.2997C22.2969 23.2386 23.058 23.9997 23.9969 23.9997Z" fill="white"/>
</svg>
