<svg width="102" height="54" viewBox="0 0 102 54" fill="none" xmlns="http://www.w3.org/2000/svg">
<path d="M2.5 47C2.5 47.2973 2.52918 47.5903 2.5856 47.8755L5.03807 47.3903C5.19464 48.1818 5.8182 48.8054 6.60968 48.9619L6.1245 51.4144C6.40967 51.4708 6.70267 51.5 7 51.5H7.5V49H10.5V51.5H11.5V49H14.5V51.5H15.5V49H18.5V51.5H19.5V49H22.5V51.5H23.5V49H26.5V51.5H27.5V49H30.5V51.5H31.5V49H34.5V51.5H35.5V49H38.5V51.5H39.5V49H42.5V51.5H43.5V49H46.5V51.5H47.5V49H50.5V51.5H51.5V49H54.5V51.5H55.5V49H58.5V51.5H59.5V49H62.5V51.5H63.5V49H66.5V51.5H67.5V49H70.5V51.5H71.5V49H74.5V51.5H75.5V49H78.5V51.5H79.5V49H82.5V51.5H83.5V49H86.5V51.5H87.5V49H90.5V51.5H91.5V49H94.5V51.5H95C95.2973 51.5 95.5903 51.4708 95.8755 51.4144L95.3903 48.9619C96.1818 48.8054 96.8054 48.1818 96.9619 47.3903L99.4144 47.8755C99.4708 47.5903 99.5 47.2973 99.5 47V46.5H97V43.5H99.5V42.5H97V39.5H99.5V38.5H97V35.5H99.5V34.5H97V31.5H99.5V30.5H97V27.5H99.5V26.5H97V23.5H99.5V22.5H97V19.5H99.5V18.5H97V15.5H99.5V14.5H97V11.5H99.5V10.5H97V7.5H99.5V7C99.5 6.70267 99.4708 6.40967 99.4144 6.1245L96.9619 6.60968C96.8054 5.8182 96.1818 5.19465 95.3903 5.03807L95.8755 2.5856C95.5903 2.52918 95.2973 2.5 95 2.5H94.5V5H91.5V2.5H90.5V5H87.5V2.5H86.5V5H83.5V2.5H82.5V5H79.5V2.5H78.5V5H75.5V2.5H74.5V5H71.5V2.5H70.5V5H67.5V2.5H66.5V5H63.5V2.5H62.5V5H59.5V2.5H58.5V5H55.5V2.5H54.5V5H51.5V2.5H50.5V5H47.5V2.5H46.5V5H43.5V2.5H42.5V5H39.5V2.5H38.5V5H35.5V2.5H34.5V5H31.5V2.5H30.5V5H27.5V2.5H26.5V5H23.5V2.5H22.5V5H19.5V2.5H18.5V5H15.5V2.5H14.5V5H11.5V2.5H10.5V5H7.5V2.5H7C6.70267 2.5 6.40967 2.52918 6.1245 2.5856L6.60968 5.03807C5.8182 5.19465 5.19464 5.8182 5.03807 6.60968L2.5856 6.1245C2.52918 6.40967 2.5 6.70267 2.5 7V7.5H5V10.5H2.5V11.5H5V14.5H2.5V15.5H5V18.5H2.5V19.5H5V22.5H2.5V23.5H5V26.5H2.5V27.5H5V30.5H2.5V31.5H5V34.5H2.5V35.5H5V38.5H2.5V39.5H5V42.5H2.5V43.5H5V46.5H2.5V47Z" fill="url(#paint0_linear_720_161)" stroke="url(#paint1_linear_720_161)" stroke-width="5" stroke-linejoin="round" stroke-dasharray="1 3"/>
<defs>
<linearGradient id="paint0_linear_720_161" x1="89.958" y1="53.125" x2="61.5709" y2="30.407" gradientUnits="userSpaceOnUse">
<stop stop-color="#C8ED86"/>
<stop offset="1" stop-color="#0185FF"/>
</linearGradient>
<linearGradient id="paint1_linear_720_161" x1="87.7955" y1="52.451" x2="24.2898" y2="29.5614" gradientUnits="userSpaceOnUse">
<stop stop-color="#1CD2FA"/>
<stop offset="1" stop-color="#9BF1F1"/>
</linearGradient>
</defs>
</svg>
